:version 1.10
:name ASF
:units
  mass 1
  length 1
  angle deg
:documentation
  ASF file generated by Kaydara
:root
  axis xyz
  order  tx ty tz rx ry rz
  position 0 0 0
  orientation 0 0 0
:bonedata
  begin
    id 1
    name RightUpLegDummy
    direction -0.718183 -0.695806 0.00816078
    length 4.904
    axis 0 0 0 xyz
  end
  begin
    id 2
    name RightUpLeg
    direction -0.0736652 -0.994202 0.0783343
    length 17.4976
    axis -2.72909 -3.00389 -4.00133 xyz
    dof rx ry rz
  end
  begin
    id 3
    name RightLeg
    direction -0.0389037 -0.994596 -0.0962598
    length 16.5821
    axis 3.95836 -18.5909 -4.46993 xyz
    dof rx ry rz
  end
  begin
    id 4
    name RightFoot
    direction -0.311643 -0.412678 0.855906
    length 3.77069
    axis -1.99483 -18.8351 -3.27644 xyz
    dof rx ry rz
  end
  begin
    id 5
    name RightToes
    direction -0.317852 0.0389852 0.947339
    length 3.85082
    axis -2.00228 -18.1713 -3.25211 xyz
    dof rx ry rz
  end
  begin
    id 6
    name SpineDummy
    direction 8.3039e-015 1 4.44677e-016
    length 4.6813
    axis 0 0 0 xyz
  end
  begin
    id 7
    name Spine
    direction -0.000262373 0.999988 0.00493267
    length 10.1015
    axis -0.00246081 0.00062579 0.0150362 xyz
    dof rx ry rz
  end
  begin
    id 8
    name Spine1
    direction 0 0 0
    length 0
    axis -0.00349562 0.000650293 0.0196666 xyz
    dof rx ry rz
  end
  begin
    id 9
    name HEadDummy
    direction -0.000343232 0.999999 0.00123745
    length 3.43865
    axis -0.00349562 0.000650293 0.0196666 xyz
  end
  begin
    id 10
    name HEad
    direction -0.0461221 0.980933 0.188796
    length 5.12695
    axis -0.00351404 -7.04812 0.0199272 xyz
    dof rx ry rz
  end
  begin
    id 11
    name LeftShoulder1Dummy
    direction 0.998904 -0.0399089 -0.0244534
    length 3.5433
    axis -0.00349562 0.000650293 0.0196666 xyz
  end
  begin
    id 12
    name LeftShoulder1
    direction 0.99951 1.64443e-005 0.0312999
    length 4.05031
    axis -0.00349562 0.000650293 0.0196666 xyz
    dof rx ry rz
  end
  begin
    id 13
    name LeftArm
    direction 0.984791 0.0515299 0.165927
    length 12.9126
    axis -64.823 -10.7743 5.20463 xyz
    dof rx ry rz
  end
  begin
    id 14
    name LeftForeArm
    direction 0.984968 0.0534808 0.16425
    length 10.8596
    axis -30.0462 -7.70601 1.87451 xyz
    dof rx ry rz
  end
  begin
    id 15
    name LeftHand
    direction 0.975871 0.0289682 0.216418
    length 6.62295
    axis -20.1348 -6.98077 1.86072 xyz
    dof rx ry rz
  end
  begin
    id 16
    name RightShoulderDummy
    direction -0.998877 -0.0405946 -0.0244307
    length 3.5433
    axis -0.00349562 0.000650293 0.0196666 xyz
  end
  begin
    id 17
    name RightShoulder
    direction -0.998933 -0.0249743 -0.0388558
    length 4.05031
    axis -0.0205316 -4.02113 1.41395 xyz
    dof rx ry rz
  end
  begin
    id 18
    name RightArm
    direction -0.997559 0.068664 0.0127103
    length 12.9638
    axis -67.3882 1.84188 -6.15987 xyz
    dof rx ry rz
  end
  begin
    id 19
    name RightForeArm
    direction -0.991508 0.0912848 0.0926241
    length 10.8312
    axis -22.1975 3.41087 -4.28711 xyz
    dof rx ry rz
  end
  begin
    id 20
    name RightHand
    direction -0.989262 0.0600788 0.133232
    length 6.57864
    axis -12.2911 2.17515 -4.39675 xyz
    dof rx ry rz
  end
  begin
    id 21
    name LeftUpLegDummy
    direction 0.718183 -0.695806 0.00816078
    length 4.904
    axis 0 0 0 xyz
  end
  begin
    id 22
    name LeftUpLeg
    direction 0.0831398 -0.99469 0.0606531
    length 17.4976
    axis -1.71016 2.29552 4.63832 xyz
    dof rx ry rz
  end
  begin
    id 23
    name LeftLeg
    direction 0.0498442 -0.991778 -0.117862
    length 16.5821
    axis 5.13757 15.5727 5.13348 xyz
    dof rx ry rz
  end
  begin
    id 24
    name LeftFoot
    direction 0.269026 -0.433896 0.85986
    length 3.77069
    axis -0.576502 15.6961 4.10267 xyz
    dof rx ry rz
  end
  begin
    id 25
    name LeftToes
    direction 0.277311 0.0251143 0.960452
    length 3.85048
    axis -0.576502 15.6961 4.10267 xyz
    dof rx ry rz
  end
:hierarchy
  begin
    root RightUpLegDummy SpineDummy LeftUpLegDummy
    RightUpLegDummy RightUpLeg
    RightUpLeg RightLeg
    RightLeg RightFoot
    RightFoot RightToes
    SpineDummy Spine
    Spine Spine1
    Spine1 HEadDummy LeftShoulder1Dummy RightShoulderDummy
    HEadDummy HEad
    LeftShoulder1Dummy LeftShoulder1
    LeftShoulder1 LeftArm
    LeftArm LeftForeArm
    LeftForeArm LeftHand
    RightShoulderDummy RightShoulder
    RightShoulder RightArm
    RightArm RightForeArm
    RightForeArm RightHand
    LeftUpLegDummy LeftUpLeg
    LeftUpLeg LeftLeg
    LeftLeg LeftFoot
    LeftFoot LeftToes
  end

:SAMPLES-PER-SECOND 30
:FULLY-SPECIFIED
:DEGREES
79
root  4.6528 44.1969 -1.76643 -177.693 -25.1202 179.419
RightUpLeg  -29.3428 -8.62593 -6.97685
RightLeg  19.559 7.5889 -3.01902
RightFoot  23.1518 -2.23118 6.49297
RightToes  3.97569e-016 -3.18055e-015 -2.98177e-016
Spine  12.1873 -12.0727 -12.8615
Spine1  4.86068 -18.6338 28.8984
HEad  25.9756 -6.18459 13.7745
LeftShoulder1  -3.88251e-019 9.70628e-020 -3.87848e-018
LeftArm  15.6665 48.6959 -8.96582
LeftForeArm  -34.1687 -62.255 19.9731
LeftHand  -1.36918 -7.70314 12.7619
RightShoulder  2.78369 5.92192 16.385
RightArm  58.1249 -54.8414 -73.9618
RightForeArm  -22.3781 10.4183 -7.30641
RightHand  -0.465558 -2.81653 -19.9225
LeftUpLeg  -32.4142 23.7726 15.9932
LeftLeg  126.07 -16.5285 4.53013
LeftFoot  22.9772 -0.396326 1.42333
LeftToes  5.30048e-011 -3.04284e-011 -3.73785e-011
80
root  5.1608 42.1522 -4.40625 -178.558 -26.4975 177.915
RightUpLeg  -24.4503 -8.7148 -7.49563
RightLeg  18.893 3.11687 -2.94566
RightFoot  22.993 -2.60741 7.68265
RightToes  3.97569e-016 -3.18055e-015 -2.98177e-016
Spine  13.4233 -11.5533 -13.2598
Spine1  4.13243 -17.473 26.4175
HEad  25.4965 -5.96412 11.323
LeftShoulder1  -3.88251e-019 9.70628e-020 -3.87848e-018
LeftArm  24.8235 48.8953 -1.79442
LeftForeArm  -31.6336 -56.6389 15.6154
LeftHand  -1.28457 -6.80107 12.8416
RightShoulder  2.84551 6.08748 16.5344
RightArm  67.6447 -56.0607 -82.2421
RightForeArm  -23.845 11.9582 -7.29426
RightHand  -0.351452 -3.27927 -18.1231
LeftUpLeg  -40.7366 22.5587 16.4933
LeftLeg  137.068 -13.7844 0.714799
LeftFoot  22.3898 -0.231567 0.90785
LeftToes  5.30048e-011 -3.04284e-011 -3.73785e-011
81
root  5.51424 39.7626 -6.91611 -179.184 -26.5101 177.097
RightUpLeg  -23.0513 -14.7323 -4.73096
RightLeg  25.7745 5.32309 -3.29124
RightFoot  10.8151 -1.01325 4.03047
RightToes  3.97569e-016 -3.18055e-015 -2.98177e-016
Spine  15.6809 -10.3103 -11.4233
Spine1  1.80215 -15.2884 24.0826
HEad  21.5867 -5.00412 8.36213
LeftShoulder1  -3.88251e-019 9.70628e-020 -3.87848e-018
LeftArm  32.8028 48.2986 4.95739
LeftForeArm  -28.01 -50.8505 12.5017
LeftHand  -1.03851 -6.30896 10.9282
RightShoulder  3.11779 6.67105 17.3855
RightArm  73.0657 -56.3127 -86.8301
RightForeArm  -21.904 12.3857 -7.19998
RightHand  -0.360156 -2.88817 -15.8754
LeftUpLeg  -49.5606 21.3207 15.667
LeftLeg  143.872 -12.4693 -0.289203
LeftFoot  17.274 -0.276214 1.22007
LeftToes  5.30048e-011 -3.04284e-011 -3.73785e-011
82
root  5.67933 37.4364 -9.37059 179.54 -23.8444 178.139
RightUpLeg  -24.2054 -18.7323 0.130748
RightLeg  36.9785 11.6968 -4.85435
RightFoot  -8.9509 0.115255 -1.32601
RightToes  3.97569e-016 -3.18055e-015 -2.98177e-016
Spine  17.1656 -8.14068 -5.68861
Spine1  0.47396 -11.5501 19.2797
HEad  15.1567 -4.2589 5.59655
LeftShoulder1  -3.88251e-019 9.70628e-020 -3.87848e-018
LeftArm  35.1943 49.3588 8.17334
LeftForeArm  -23.7481 -45.7336 10.435
LeftHand  -0.988504 -6.90232 9.86194
RightShoulder  3.82408 7.39707 20.8024
RightArm  68.8171 -58.6797 -81.8022
RightForeArm  -16.4585 9.37352 -7.73572
RightHand  -0.49695 -1.79689 -15.3756
LeftUpLeg  -57.2664 20.9348 14.1895
LeftLeg  145.025 -14.2895 1.00193
LeftFoot  10.3836 -0.755543 3.82529
LeftToes  5.30048e-011 -3.04284e-011 -3.73785e-011
83
root  5.76474 35.7725 -11.8162 177.701 -19.5511 179.886
RightUpLeg  -24.1823 -13.1638 2.33116
RightLeg  47.8079 11.2131 -6.54763
RightFoot  -23.6415 -0.129951 -2.61802
RightToes  3.97569e-016 -3.18055e-015 -2.98177e-016
Spine  17.86 -5.55902 0.605885
Spine1  1.47768 -7.37891 12.6048
HEad  9.73351 -3.98004 2.96233
LeftShoulder1  -3.88251e-019 9.70628e-020 -3.87848e-018
LeftArm  31.5502 54.2692 6.01478
LeftForeArm  -26.2772 -41.1292 8.56263
LeftHand  -1.25265 -5.70898 13.9352
RightShoulder  4.78653 8.18371 25.3607
RightArm  52.1047 -61.9426 -62.2921
RightForeArm  -10.8296 5.24799 -8.2314
RightHand  -0.633352 -1.2718 -17.2843
LeftUpLeg  -63.0856 19.5299 10.5519
LeftLeg  138.752 -18.0929 4.41347
LeftFoot  5.04667 -1.3778 8.74509
LeftToes  5.30048e-011 -3.04284e-011 -3.73785e-011
84
root  5.82295 35.1066 -14.2016 176.192 -16.363 -179.532
RightUpLeg  -21.4031 -11.1805 3.15322
RightLeg  53.3944 12.18 -6.42775
RightFoot  -29.6899 -0.147228 -1.68968
RightToes  3.97569e-016 -3.18055e-015 -2.98177e-016
Spine  18.4145 -3.47783 3.33682
Spine1  3.82716 -4.53015 7.97015
HEad  7.92714 -4.15015 0.824997
LeftShoulder1  -3.88251e-019 9.70628e-020 -3.87848e-018
LeftArm  25.3625 61.6046 -1.60515
LeftForeArm  -37.9828 -35.6139 6.31633
LeftHand  -1.33031 -2.61286 20.3279
RightShoulder  5.47082 8.85416 28.0537
RightArm  31.686 -60.4926 -35.9361
RightForeArm  -7.98751 6.70346 -7.4605
RightHand  -0.742607 -1.24008 -20.0316
LeftUpLeg  -65.0747 14.9199 4.51875
LeftLeg  123.99 -20.8265 10.6155
LeftFoot  0.189106 -1.43804 12.155
LeftToes  5.30048e-011 -3.04284e-011 -3.73785e-011
85
root  5.79579 35.0563 -16.5777 176.009 -14.2832 179.866
RightUpLeg  -16.6553 -11.3731 2.48624
RightLeg  53.5281 12.9118 -5.33176
RightFoot  -32.5286 -0.163073 -1.58448
RightToes  3.97569e-016 -3.18055e-015 -2.98177e-016
Spine  17.7297 -1.6874 3.55523
Spine1  5.43468 -2.56731 5.5695
HEad  9.0685 -4.99146 0.246702
LeftShoulder1  -3.88251e-019 9.70628e-020 -3.87848e-018
LeftArm  20.5144 68.3356 -11.193
LeftForeArm  -47.1595 -29.6466 4.1392
LeftHand  -1.03368 -0.955085 19.8751
RightShoulder  5.58711 9.10922 28.1738
RightArm  25.8978 -56.3746 -19.0971
RightForeArm  -11.4904 17.4896 -8.30936
RightHand  -1.02874 -0.0901891 -21.9188
LeftUpLeg  -63.5218 9.72712 -1.06022
LeftLeg  103.43 -18.7205 17.4114
LeftFoot  -3.44227 -0.870995 10.1796
LeftToes  5.30048e-011 -3.04284e-011 -3.73785e-011
